<?xml version="1.0" standalone="no"?>
<!DOCTYPE svg PUBLIC "-//W3C//DTD SVG 20010904//EN"
 "http://www.w3.org/TR/2001/REC-SVG-20010904/DTD/svg10.dtd">
<svg version="1.0" xmlns="http://www.w3.org/2000/svg"
 width="64" height='64' viewBox="0 0 64.000000 64.000000"
 preserveAspectRatio="xMidYMid meet">

<g transform="translate(0.000000,64.000000) scale(0.100000,-0.100000)"
fill="#c27803" stroke="none">
<path d="M233 629 c-9 -9 -10 -16 -2 -26 9 -10 53 -13 185 -13 l174 0 0 -172
c0 -182 6 -212 35 -188 15 12 16 35 13 187 -4 231 10 217 -221 221 -128 3
-175 0 -184 -9z"/>
<path d="M36 601 c-19 -20 -26 -36 -22 -47 6 -15 9 -15 31 6 l24 22 3 -226 3
-226 28 -27 27 -28 220 -3 c121 -2 220 -6 220 -9 0 -4 -7 -15 -16 -25 -16 -16
-15 -18 0 -24 11 -4 27 3 47 22 40 38 39 76 -3 115 -35 32 -43 34 -53 18 -4
-6 3 -21 16 -35 l22 -24 -216 0 c-204 0 -218 1 -237 20 -19 19 -20 33 -20 236
l0 215 26 -20 c50 -39 62 2 13 43 -41 35 -78 33 -113 -3z"/>
<path d="M447 482 c-10 -10 -17 -26 -17 -35 0 -21 29 -22 36 -2 4 8 10 15 15
15 18 0 9 -26 -22 -63 -17 -20 -27 -41 -24 -47 3 -5 26 -10 51 -10 37 0 44 3
44 20 0 12 -7 20 -16 20 -15 0 -15 2 0 25 21 32 20 58 -2 78 -24 22 -45 21
-65 -1z"/>
<path d="M174 396 c-3 -7 -4 -48 -2 -92 2 -65 6 -79 20 -82 15 -3 18 7 20 70
3 65 5 73 23 73 18 0 21 -8 25 -70 4 -53 9 -70 20 -70 11 0 16 17 20 70 4 62
7 70 25 70 18 0 20 -8 23 -73 2 -63 5 -73 20 -70 27 5 30 126 3 159 -18 23
-26 25 -106 27 -61 0 -88 -3 -91 -12z"/>
</g>
</svg>
