<?xml version="1.0" encoding="UTF-8"?>
<!DOCTYPE svg PUBLIC "-//W3C//DTD SVG 1.1//EN" "http://www.w3.org/Graphics/SVG/1.1/DTD/svg11.dtd">
<svg xmlns="http://www.w3.org/2000/svg" version="1.1" width="64px" height="64px" style="shape-rendering:geometricPrecision; text-rendering:geometricPrecision; image-rendering:optimizeQuality; fill-rule:evenodd; clip-rule:evenodd" xmlns:xlink="http://www.w3.org/1999/xlink">
<g><path style="opacity:0.823" fill="#c37702" d="M 49.5,-0.5 C 51.5,-0.5 53.5,-0.5 55.5,-0.5C 57.9265,2.38632 59.5931,5.71966 60.5,9.5C 58.0103,11.1201 55.3437,12.6201 52.5,14C 56.6498,23.586 56.4832,33.086 52,42.5C 45.7083,46.7228 39.5416,51.0561 33.5,55.5C 34.5612,58.8345 36.8946,60.3345 40.5,60C 41.3366,61.0113 41.67,62.1779 41.5,63.5C 39.5,63.5 37.5,63.5 35.5,63.5C 35.1667,62.1667 34.8333,62.1667 34.5,63.5C 30.8333,63.5 27.1667,63.5 23.5,63.5C 23.3957,61.0272 22.3957,60.3606 20.5,61.5C 17.912,59.28 18.412,57.6133 22,56.5C 23.2785,51.773 21.4452,49.273 16.5,49C 7.52081,39.7989 3.02081,28.9655 3,16.5C 5.06385,15.4086 7.23052,15.2419 9.5,16C 13.9346,18.5509 18.6012,20.5509 23.5,22C 24.8333,22.6667 24.8333,23.3333 23.5,24C 22.1667,24.3333 20.8333,24.6667 19.5,25C 24.5205,31.8467 31.1871,34.8467 39.5,34C 46.1703,29.4481 45.6703,25.6148 38,22.5C 35.9592,23.4231 33.7925,23.7564 31.5,23.5C 31.5,22.5 31.5,21.5 31.5,20.5C 33.4835,20.6168 35.1502,19.9501 36.5,18.5C 37.983,11.8554 41.6497,6.85536 47.5,3.5C 48.1799,2.14011 48.8466,0.806777 49.5,-0.5 Z M 6.5,19.5 C 8.7834,19.6079 10.7834,20.4412 12.5,22C 16.0533,26.7962 20.0533,31.1296 24.5,35C 32.8916,40.3758 40.3916,39.5425 47,32.5C 47.6667,29.8333 47.6667,27.1667 47,24.5C 44.9107,22.2155 42.7441,20.0488 40.5,18C 42.0356,12.0724 45.7023,8.23907 51.5,6.5C 53.9042,7.00785 54.5709,8.17452 53.5,10C 51.8659,10.4935 50.1992,10.6602 48.5,10.5C 50.1352,16.5796 51.4686,22.7463 52.5,29C 52.5435,38.1286 48.2101,43.6286 39.5,45.5C 39.5,44.5 39.5,43.5 39.5,42.5C 38.448,42.3505 37.448,42.5172 36.5,43C 31.3328,55.5786 26.6661,55.412 22.5,42.5C 21.5,42.5 20.5,42.5 19.5,42.5C 19.728,44.3547 19.0613,45.1881 17.5,45C 15.393,43.7365 14.393,41.9032 14.5,39.5C 17.5,39.8333 18.8333,38.5 18.5,35.5C 15.6035,35.8747 12.9368,35.3747 10.5,34C 12.2861,33.8038 13.6195,32.9705 14.5,31.5C 12.6672,29.95 10.5006,28.95 8,28.5C 7.39352,26.1715 8.06019,25.8382 10,27.5C 13.3277,25.2677 12.8277,23.7677 8.5,23C 7.17723,22.1841 6.51056,21.0174 6.5,19.5 Z M 26.5,55.5 C 29.1094,55.8301 30.7761,57.3301 31.5,60C 26.98,61.0885 25.3133,59.5885 26.5,55.5 Z"/></g>
</svg>
