<?xml version="1.0" standalone="no"?>
<!DOCTYPE svg PUBLIC "-//W3C//DTD SVG 20010904//EN"
 "http://www.w3.org/TR/2001/REC-SVG-20010904/DTD/svg10.dtd">
<svg version="1.0" xmlns="http://www.w3.org/2000/svg"
 width="64" height='64' viewBox="0 0 794.000000 741.000000"
 preserveAspectRatio="xMidYMid meet">
<g transform="translate(0.000000,741.000000) scale(0.100000,-0.100000)"
fill="#c27803" stroke="none">

<path d="M5409 6491 c-18 -18 -29 -40 -29 -56 0 -21 -4 -26 -16 -21 -57 22
-104 27 -138 16 -93 -30 -103 -134 -23 -242 11 -15 19 -30 16 -32 -2 -2 -31
-17 -64 -34 -141 -71 -296 -220 -418 -404 -49 -73 -118 -200 -187 -344 -169
-356 -237 -473 -322 -549 -77 -69 -125 -79 -327 -71 -348 15 -538 66 -654 175
-88 82 -109 141 -187 533 -80 398 -100 455 -210 591 -96 120 -167 167 -252
167 -62 0 -120 -33 -191 -110 -55 -60 -73 -72 -144 -99 -86 -34 -185 -93 -219
-132 -11 -13 -37 -51 -57 -85 -55 -92 -76 -110 -158 -134 -85 -26 -144 -76
-154 -134 -9 -46 16 -131 69 -233 l43 -83 -24 -48 c-13 -27 -27 -73 -30 -103
-5 -57 -1 -73 57 -210 l33 -76 -42 -53 c-113 -143 -134 -252 -73 -366 18 -34
62 -98 98 -143 l64 -81 -16 -63 c-20 -77 -15 -197 10 -247 25 -49 57 -81 163
-166 51 -41 99 -87 108 -103 21 -42 19 -97 -9 -177 -73 -209 -75 -420 -4 -587
58 -138 161 -258 359 -417 275 -220 541 -360 686 -360 24 0 43 -5 43 -10 0
-17 -30 -161 -42 -202 -9 -32 -17 -39 -57 -53 -25 -8 -77 -19 -114 -24 -38 -5
-75 -15 -83 -22 -23 -19 -16 -63 16 -107 35 -48 72 -70 135 -79 25 -3 45 -6
45 -7 0 0 -12 -37 -25 -81 -32 -99 -41 -191 -23 -224 7 -14 28 -34 46 -44 29
-17 39 -18 72 -8 44 13 91 62 123 128 20 41 24 44 51 39 16 -4 94 -41 173 -85
l144 -78 -38 -29 c-46 -34 -53 -43 -53 -70 0 -69 161 -102 343 -69 l78 14 64
-40 c60 -38 64 -43 75 -92 13 -62 25 -77 59 -77 56 1 116 40 156 104 9 14 25
14 145 5 96 -7 159 -7 217 1 57 7 95 7 127 0 37 -8 52 -7 76 5 61 32 79 121
35 173 -30 35 -79 57 -166 71 -102 18 -104 19 -155 61 -92 76 -180 100 -258
70 -16 -6 -46 -14 -68 -19 l-40 -9 -55 85 c-43 66 -70 125 -114 252 -33 91
-59 169 -59 172 0 3 26 13 58 23 96 30 161 67 183 103 14 23 23 60 28 113 4
43 9 81 11 84 3 2 84 70 180 150 143 120 194 155 278 197 79 39 121 67 183
126 52 48 102 85 142 103 75 34 224 131 332 215 148 117 254 243 295 353 57
150 76 380 60 697 -12 244 -19 292 -91 610 -94 416 -119 546 -119 631 l0 82
58 4 c76 5 142 39 211 107 72 70 103 135 104 214 l0 59 44 -6 c24 -3 57 -16
74 -28 28 -21 32 -21 57 -8 30 17 40 44 41 115 1 63 -25 121 -72 162 -26 23
-37 41 -37 60 0 47 -18 95 -49 127 -16 17 -37 55 -46 85 -10 30 -28 65 -41 78
-13 13 -26 39 -30 59 -8 43 -45 90 -78 98 -19 5 -24 14 -29 48 -7 51 -52 98
-95 98 -31 0 -92 -34 -92 -52 0 -6 -10 -2 -22 9 -59 53 -124 59 -169 14z m149
-201 c41 -75 73 -77 94 -6 l12 41 6 -67 c3 -44 11 -73 22 -84 15 -15 17 -15
34 5 32 36 43 26 46 -41 l3 -63 40 0 c35 0 40 -3 43 -25 5 -50 12 -67 37 -96
28 -32 29 -51 3 -67 -23 -15 -68 6 -68 32 0 24 -125 142 -192 181 -41 23 -65
30 -106 30 -63 0 -80 8 -147 67 -27 24 -58 50 -68 59 -39 33 -5 24 77 -21 49
-27 95 -45 108 -43 20 3 23 9 22 48 0 25 -4 57 -8 73 -13 45 11 32 42 -23z
m50 -239 c37 -19 65 -42 164 -137 20 -19 50 -102 42 -115 -6 -11 -50 -34 -83
-44 -21 -6 -23 -5 -18 14 7 27 3 26 -36 -3 -68 -50 -139 -56 -192 -14 -25 20
-60 76 -52 84 2 2 20 -3 40 -11 50 -21 89 -19 121 6 53 42 21 80 -71 83 -29 1
-51 -6 -73 -23 -24 -18 -35 -20 -43 -11 -25 24 76 80 143 80 14 -1 50 -9 80
-20 l55 -18 -28 22 c-50 40 -89 46 -190 31 -139 -22 -164 -32 -218 -85 -74
-75 -97 -176 -63 -290 18 -62 31 -84 96 -162 50 -62 67 -112 49 -147 -10 -18
-9 -22 13 -31 52 -19 60 -49 68 -245 3 -99 13 -216 22 -259 9 -44 14 -81 13
-83 -2 -1 -19 34 -37 79 -39 95 -31 107 -69 -97 -12 -60 -29 -137 -39 -170
l-18 -60 -18 120 c-22 153 -21 149 -34 88 -27 -122 -102 -259 -187 -343 l-45
-44 6 79 6 80 -26 -51 c-28 -54 -86 -118 -86 -93 1 8 7 46 14 84 8 39 12 72
11 74 -2 1 -23 -35 -46 -80 -47 -95 -49 -94 -70 29 -17 100 -23 102 -45 10
-16 -72 -20 -79 -25 -53 -4 17 -7 73 -8 125 -2 109 -13 105 -31 -13 -10 -61
-15 -75 -26 -66 -16 13 -43 93 -53 157 l-8 47 -13 -30 c-7 -16 -21 -57 -30
-90 -13 -44 -19 -55 -23 -40 -14 45 -27 155 -27 228 l0 78 -37 -7 -38 -6 40
43 c22 24 31 36 20 28 -59 -47 -76 -86 197 441 242 465 249 477 309 552 28 35
56 77 63 93 32 75 172 169 298 201 75 19 183 12 236 -15z m-2977 -39 c92 -59
175 -177 224 -321 13 -38 40 -145 60 -237 20 -92 41 -179 46 -193 13 -34 -82
58 -199 194 -119 138 -117 137 -78 71 37 -62 60 -119 54 -137 -2 -5 -54 26
-116 70 -62 45 -114 81 -117 81 -2 0 20 -39 50 -87 29 -49 51 -90 49 -92 -2
-3 -23 13 -45 35 l-41 39 7 -35 c3 -19 9 -44 11 -55 7 -28 -41 28 -86 100 -59
95 -177 165 -279 165 -47 0 -81 17 -81 40 0 26 27 60 64 81 61 34 163 33 236
-3 30 -15 56 -26 57 -24 10 10 -85 98 -128 120 l-51 25 43 11 c81 22 178 -21
213 -95 10 -20 20 -35 22 -32 11 10 -20 100 -47 137 -53 73 -27 96 40 35 l38
-35 -20 69 c-31 105 -10 126 74 73z m2925 -151 c11 9 14 8 14 -4 0 -9 -5 -19
-11 -22 -17 -11 -59 4 -59 21 0 12 4 13 21 4 15 -9 24 -8 35 1z m-228 -17 c28
-19 31 -74 4 -74 -45 0 -78 50 -50 78 15 15 19 15 46 -4z m650 -31 c35 -14 72
-47 72 -63 0 -5 -16 2 -36 15 -20 13 -62 30 -95 36 -59 12 -75 24 -41 32 21 5
56 -2 100 -20z m-33 -43 c26 -6 22 -8 -23 -9 -33 -1 -51 3 -47 9 7 11 26 11
70 0z m-407 -85 c27 -4 52 -1 77 9 50 21 55 14 10 -14 -75 -46 -166 -32 -205
32 -29 48 -25 50 30 13 27 -18 67 -36 88 -40z m-194 5 c7 0 33 -17 57 -38 64
-56 83 -64 113 -50 21 9 29 8 44 -5 17 -15 20 -14 46 14 29 30 114 79 139 79
30 0 60 -49 65 -105 5 -65 -9 -106 -50 -140 -68 -57 -148 -50 -211 19 -35 38
-40 40 -51 24 -15 -21 -37 -23 -54 -6 -9 9 -12 8 -12 -4 0 -23 -24 -29 -48
-12 -20 14 -122 191 -122 212 0 12 37 21 58 16 8 -2 19 -4 26 -4z m-3184 -182
c19 -6 56 -21 82 -34 53 -27 245 -187 229 -192 -24 -8 -133 21 -201 55 -98 49
-101 49 -63 19 71 -58 117 -165 77 -180 -8 -3 -41 3 -72 13 -31 11 -58 18 -59
17 -2 -1 11 -22 29 -45 31 -43 31 -43 7 -37 -65 19 -152 71 -203 122 -81 81
-131 198 -91 211 6 2 36 -12 68 -31 31 -19 57 -32 57 -29 0 3 -13 21 -30 40
-33 37 -37 55 -17 71 27 22 113 22 187 0z m772 -397 c95 -201 100 -211 152
-268 47 -52 126 -102 163 -104 13 0 11 -3 -7 -11 -24 -9 -126 -6 -180 6 -14 4
-2 -5 27 -19 34 -17 79 -29 130 -33 l78 -8 -40 -12 c-63 -20 -164 -25 -229
-13 -33 6 -61 9 -63 7 -9 -9 105 -56 150 -62 62 -9 43 -24 -31 -24 -52 0 -98
16 -137 49 -10 9 -2 -8 18 -37 20 -28 37 -54 37 -57 0 -3 -10 -5 -22 -5 -46 1
-106 39 -190 122 -136 134 -267 210 -416 239 l-64 12 22 21 c19 19 31 21 143
20 73 -1 148 -7 187 -17 36 -8 66 -14 68 -12 2 2 -32 26 -75 54 -82 54 -203
106 -272 117 -55 9 -60 21 -14 33 50 14 90 13 136 -3 20 -8 37 -12 37 -10 0 2
-34 26 -75 54 -41 28 -75 54 -75 59 0 15 76 21 130 11 73 -14 141 -54 216
-127 35 -34 64 -60 64 -57 0 13 -63 126 -103 187 -25 37 -42 67 -38 67 16 0
89 -59 110 -88 12 -17 30 -50 41 -74 27 -60 26 -23 -5 98 -14 54 -25 101 -25
104 1 3 21 -17 46 -44 30 -33 66 -93 106 -175z m-869 -28 c122 -84 177 -129
188 -155 10 -25 9 -30 -12 -48 -43 -35 -136 -80 -167 -80 -51 0 -53 48 -3 75
24 13 22 13 -30 8 -97 -10 -149 37 -149 132 0 38 5 52 29 76 40 40 76 38 144
-8z m368 -363 c35 -10 87 -33 114 -51 51 -32 135 -107 135 -121 0 -4 -28 -8
-62 -9 -61 -1 -62 -1 -22 -9 37 -8 144 -55 144 -64 0 -2 -22 -1 -49 2 -134 13
-276 -80 -327 -214 -18 -48 -45 -59 -63 -25 -8 14 -6 31 10 66 11 26 18 49 15
52 -10 11 -106 -71 -146 -125 l-40 -55 0 39 c1 56 34 121 93 182 l52 54 -128
-81 c-140 -89 -154 -90 -122 -6 24 65 89 117 183 148 81 27 72 36 -13 13 -73
-19 -131 -52 -187 -104 -40 -37 -53 -44 -66 -35 -9 5 -18 17 -20 26 -5 26 75
104 141 137 33 16 55 30 49 30 -18 0 -132 -44 -190 -74 -29 -14 -52 -22 -52
-16 0 14 66 86 103 112 16 12 55 32 86 45 l56 24 -67 -5 c-38 -3 -68 -3 -68
-1 0 8 85 48 140 66 78 25 219 25 301 -1z m1197 -137 c192 -22 573 -22 685 -1
58 11 75 12 67 3 -25 -31 -203 -93 -275 -96 -46 -3 81 -17 159 -18 l69 -1 -28
-22 c-16 -12 -62 -39 -104 -60 -42 -21 -65 -36 -51 -33 161 34 260 51 260 44
0 -5 -25 -23 -55 -40 -30 -17 -55 -32 -55 -34 0 -2 25 5 57 16 31 10 58 18 59
16 2 -1 -6 -29 -17 -61 -10 -33 -17 -61 -15 -64 3 -2 26 3 51 12 54 18 54 16
-19 -63 l-41 -44 60 33 c33 19 77 44 98 57 20 13 37 20 37 16 0 -17 -57 -86
-94 -113 -22 -17 -38 -30 -35 -30 2 1 54 16 114 34 61 19 111 33 112 32 9 -9
-28 -86 -59 -121 -50 -57 -75 -72 -493 -299 -346 -188 -360 -195 -363 -171 -2
14 -6 25 -9 25 -3 0 -23 -16 -44 -35 -21 -19 -50 -37 -64 -41 -62 -15 -115 29
-95 81 9 22 8 26 -2 17 -14 -11 -130 -52 -148 -52 -16 0 -11 41 10 88 l19 42
-34 -26 c-46 -35 -117 -44 -145 -19 -33 30 -26 73 20 117 38 36 39 38 17 38
-14 0 -44 -7 -67 -15 -84 -30 -160 -11 -160 40 0 32 23 52 92 82 56 25 84 52
32 33 -14 -6 -55 -10 -91 -10 l-66 0 19 21 c10 12 38 32 62 46 24 14 42 27 40
28 -2 1 -36 -2 -77 -7 -41 -5 -79 -7 -84 -5 -14 4 113 106 183 146 40 23 47
30 25 25 -46 -11 -113 -10 -125 2 -14 14 -6 23 86 89 77 55 71 67 -23 46 -100
-23 -124 22 -45 86 120 100 236 160 334 172 34 5 64 9 66 10 1 0 69 -7 150
-16z m1872 -278 c71 -142 101 -267 103 -425 3 -167 -29 -344 -46 -257 -2 12
-5 -14 -6 -59 -3 -197 -89 -388 -250 -551 -67 -68 -182 -163 -197 -163 -4 0
-4 30 -1 67 l5 68 -25 -30 c-50 -60 -119 -129 -168 -167 -51 -41 -183 -113
-192 -104 -6 6 69 116 115 170 63 72 68 82 20 38 -87 -78 -231 -156 -328 -177
l-31 -7 39 59 c37 54 72 130 72 154 0 6 -24 -9 -52 -34 -80 -67 -177 -118
-271 -141 -23 -5 -17 4 41 61 57 56 122 151 122 178 0 3 -15 -5 -32 -18 -18
-14 -55 -36 -83 -50 -50 -25 -155 -60 -162 -54 -1 2 35 45 81 96 90 99 181
211 171 211 -3 0 -31 -13 -63 -29 -111 -56 -356 -138 -384 -129 -6 2 9 17 33
32 59 39 235 184 283 234 l39 41 -74 -24 c-126 -40 -278 -54 -409 -38 l-55 7
114 22 c76 15 138 34 185 58 70 34 145 96 167 138 11 20 9 21 -17 15 -16 -3
-47 -8 -69 -11 -36 -6 -37 -5 -15 5 14 7 59 28 100 47 l75 36 -55 7 c-30 4
-95 7 -143 8 -84 1 -106 12 -52 25 39 10 181 79 260 127 159 96 369 276 395
340 19 46 23 27 7 -37 -28 -113 -28 -119 7 -49 32 65 114 172 102 132 -3 -10
-13 -44 -21 -77 -8 -33 -18 -67 -22 -76 -9 -23 66 29 140 96 30 27 57 50 60
50 3 0 -3 -30 -14 -67 -10 -38 -19 -70 -19 -73 0 -2 22 29 50 70 50 76 85 120
93 120 6 0 -10 -91 -22 -122 -6 -16 -9 -28 -7 -28 2 0 39 51 82 113 l79 112 5
-95 5 -95 29 103 c16 56 30 101 32 99 2 -2 9 -39 16 -83 l12 -79 7 55 c4 30 8
84 9 120 2 95 13 116 29 56 17 -68 23 -52 11 30 -15 108 -14 115 16 79 13 -16
47 -75 74 -130z m-2594 40 c-4 -14 0 -48 8 -74 8 -27 12 -51 10 -54 -3 -3 -22
0 -42 5 -45 13 -196 16 -277 5 l-60 -7 35 31 c19 17 56 42 83 55 47 25 181 62
226 63 20 1 22 -2 17 -24z m-57 -201 l31 -7 -26 -26 c-26 -26 -28 -52 -9 -118
l7 -21 -77 19 c-43 11 -117 36 -166 55 -134 54 -127 81 23 94 128 10 180 11
217 4z m-489 -43 c0 -4 -15 -12 -32 -18 -31 -9 -28 -10 37 -17 84 -8 121 -25
60 -27 -22 -1 -53 -4 -70 -8 -29 -7 -28 -7 15 -13 25 -3 59 -12 75 -19 29 -12
29 -13 -37 -19 -70 -7 -104 -20 -51 -20 35 0 123 -28 123 -40 0 -4 -16 -11
-35 -14 -19 -4 -37 -12 -41 -18 -4 -7 -3 -8 5 -4 6 4 31 4 54 0 l42 -7 -30
-13 c-28 -12 -28 -13 -6 -14 33 0 85 -34 121 -80 17 -21 52 -53 78 -70 l47
-32 -47 4 c-25 1 -44 0 -43 -3 2 -3 35 -18 72 -34 93 -38 97 -45 27 -45 -105
0 -215 -38 -296 -102 -41 -32 -45 -31 -24 10 7 15 17 38 21 50 6 21 5 23 -12
13 -11 -5 -38 -29 -61 -52 l-42 -41 25 67 c14 37 32 83 40 103 9 19 13 37 10
40 -3 3 -21 -10 -41 -29 -34 -32 -36 -33 -29 -9 4 14 19 47 32 73 13 27 22 51
20 53 -2 3 -22 -18 -43 -46 -38 -50 -39 -51 -42 -24 -2 15 9 52 26 85 16 33
25 59 21 59 -4 0 -33 -24 -65 -52 l-57 -53 7 44 c8 49 29 96 59 129 26 28 14
28 -29 1 -31 -19 -80 -79 -98 -119 -3 -8 -4 9 -1 38 2 31 15 73 29 99 l26 45
-33 -20 c-17 -11 -47 -39 -64 -62 -18 -23 -33 -36 -33 -28 1 21 39 99 66 135
14 18 21 33 17 33 -17 0 -79 -42 -100 -68 -19 -22 -23 -24 -23 -9 0 52 57 112
132 138 55 19 198 26 198 10z m272 -141 c51 -39 134 -91 183 -117 54 -28 115
-69 153 -105 34 -32 86 -71 115 -88 l52 -30 -41 0 c-22 0 -76 9 -120 20 -212
54 -420 218 -440 348 -4 23 -4 42 -1 42 3 0 47 -32 99 -70z m275 -450 c62 -10
185 -45 411 -115 l114 -35 151 26 c154 26 292 35 317 19 18 -11 3 -17 -198
-66 -91 -22 -181 -48 -200 -58 l-36 -18 26 -17 c51 -33 191 -76 289 -89 l100
-12 -138 -34 c-76 -19 -154 -39 -173 -46 l-35 -12 57 -21 c31 -12 87 -27 125
-35 37 -8 61 -17 53 -20 -8 -3 -46 -15 -85 -27 -38 -13 -74 -26 -78 -30 -10
-9 90 -26 208 -36 l80 -7 -90 -22 -90 -23 120 -1 c67 -1 115 -5 110 -10 -6 -4
-49 -19 -97 -32 -49 -13 -88 -26 -88 -30 0 -3 78 -7 172 -8 95 -1 174 -3 175
-4 1 -2 -38 -20 -87 -42 -49 -22 -90 -42 -90 -45 0 -3 26 -4 58 -2 33 2 72 2
88 0 24 -3 17 -7 -43 -28 -40 -13 -73 -28 -73 -33 0 -11 210 -1 299 14 30 5
56 7 58 5 2 -2 -18 -17 -44 -35 l-48 -31 110 -1 110 -1 -75 -36 -75 -37 85 -3
85 -3 -80 -46 c-163 -93 -252 -187 -291 -308 -26 -79 -70 -115 -102 -83 -9 9
-12 9 -12 -3 0 -8 -13 -30 -29 -49 l-29 -35 -7 48 c-4 26 -10 47 -14 47 -4 0
-18 -23 -31 -50 -28 -59 -44 -63 -125 -25 -80 38 -151 126 -169 211 -7 30 -8
31 -56 26 -59 -5 -111 22 -130 68 -12 28 -14 29 -39 16 -14 -7 -36 -17 -48
-20 -20 -7 -23 -4 -23 22 0 16 -3 31 -6 35 -4 3 -37 -10 -75 -29 l-69 -34 0
42 c0 66 -10 72 -53 32 l-37 -35 0 49 c0 27 -3 51 -6 55 -3 3 -31 -3 -61 -14
-31 -10 -61 -19 -66 -19 -10 0 -4 71 9 118 l7 23 -37 -25 c-130 -88 -323 9
-426 214 -31 60 -38 156 -16 199 l17 33 -37 -26 c-21 -14 -39 -24 -41 -22 -3
2 20 73 43 131 7 20 7 20 -14 1 -28 -25 -28 -11 3 70 14 36 25 70 25 75 0 5
-34 -11 -75 -36 l-75 -44 0 29 c0 45 35 146 70 200 39 61 116 131 173 159 99
48 237 63 374 41z m514 -1678 c8 -183 21 -228 87 -282 72 -59 107 -70 238 -71
l119 -1 -70 -14 c-38 -7 -102 -13 -140 -13 -70 -1 -72 0 -110 39 -21 22 -41
38 -43 36 -6 -6 72 -118 99 -142 34 -30 124 -79 191 -104 74 -28 80 -39 15
-27 -62 11 -130 39 -207 86 -30 18 -98 55 -151 82 -136 69 -176 66 -230 -19
-36 -56 -36 -53 -3 28 14 35 35 105 45 154 11 50 22 100 26 111 5 17 1 16 -28
-8 -37 -31 -98 -61 -106 -53 -3 3 10 11 28 19 77 33 87 52 150 284 l22 82 31
-13 31 -12 6 -162z m163 -11 c10 -11 30 -24 45 -31 22 -9 38 -31 69 -101 l41
-89 -53 0 c-75 0 -102 31 -121 136 -8 44 -14 85 -15 92 0 18 14 15 34 -7z
m371 -199 c46 -160 153 -387 209 -441 45 -43 95 -49 195 -23 41 10 84 17 94
14 13 -3 -11 -13 -62 -25 -45 -11 -78 -23 -74 -27 8 -7 285 -62 388 -77 l50
-7 -39 -7 c-50 -8 -336 6 -400 21 -26 6 -62 21 -80 34 -17 12 -49 33 -71 46
-39 23 -38 21 23 -42 51 -55 62 -72 62 -100 l-1 -33 -12 26 c-16 35 -56 67
-146 117 l-74 40 -79 -29 c-44 -16 -94 -29 -111 -28 -25 0 -15 6 49 28 102 36
121 46 129 70 6 21 -43 174 -134 411 l-59 155 41 6 c23 3 47 7 52 7 6 1 28
-60 50 -136z"/>
<path d="M5640 5903 c1 -4 7 -19 15 -33 21 -37 19 -47 -22 -75 -23 -15 -31
-25 -21 -25 27 0 72 20 86 38 7 9 20 17 30 17 11 0 18 10 20 29 3 26 2 28 -23
22 -18 -5 -35 0 -56 14 -16 12 -29 18 -29 13z"/>
</g>
</svg>
