<?xml version="1.0" encoding="UTF-8"?>
<!DOCTYPE svg PUBLIC "-//W3C//DTD SVG 1.1//EN" "http://www.w3.org/Graphics/SVG/1.1/DTD/svg11.dtd">
<svg xmlns="http://www.w3.org/2000/svg" version="1.1" width="64px" height="64px" style="shape-rendering:geometricPrecision; text-rendering:geometricPrecision; image-rendering:optimizeQuality; fill-rule:evenodd; clip-rule:evenodd" xmlns:xlink="http://www.w3.org/1999/xlink">
<g><path style="opacity:1" fill="#a38653" d="M 48.5,8.5 C 47.6618,8.84171 47.3284,9.50838 47.5,10.5C 45.3453,10.372 43.3453,10.872 41.5,12C 38.9334,14.3959 36.6,16.8959 34.5,19.5C 34.5,18.1667 34.5,16.8333 34.5,15.5C 37.4387,9.3634 42.1053,7.03007 48.5,8.5 Z"/></g>
<g><path style="opacity:1" fill="#b58743" d="M 25.5,11.5 C 25.631,12.2389 25.4643,12.9056 25,13.5C 24.31,12.2617 23.81,12.2617 23.5,13.5C 20.0527,10.2625 16.3861,9.92919 12.5,12.5C 12.1667,11.8333 11.8333,11.1667 11.5,10.5C 12.8984,8.46719 14.8984,7.46719 17.5,7.5C 20.7665,7.79973 23.4331,9.13306 25.5,11.5 Z"/></g>
<g><path style="opacity:0.949" fill="#b19f53" d="M 48.5,8.5 C 51.6433,9.1335 54.1433,10.8002 56,13.5C 58.0995,16.6999 59.9328,20.0333 61.5,23.5C 60.209,23.2627 59.209,23.596 58.5,24.5C 56.2798,18.7412 52.6131,14.0746 47.5,10.5C 47.3284,9.50838 47.6618,8.84171 48.5,8.5 Z"/></g>
<g><path style="opacity:1" fill="#af9230" d="M 11.5,10.5 C 11.8333,11.1667 12.1667,11.8333 12.5,12.5C 10.2519,15.328 8.25192,18.328 6.5,21.5C 5.16667,21.5 3.83333,21.5 2.5,21.5C 4.47997,16.8669 7.47997,13.2002 11.5,10.5 Z"/></g>
<g><path style="opacity:1" fill="#a0a149" d="M 40.5,21.5 C 39.7777,20.4489 38.7777,19.7822 37.5,19.5C 38.6332,16.0291 40.9666,14.0291 44.5,13.5C 43.7128,16.4077 42.3795,19.0744 40.5,21.5 Z"/></g>
<g><path style="opacity:1" fill="#b6ad4d" d="M 25.5,11.5 C 27.7368,13.6471 29.7368,15.9804 31.5,18.5C 31.6107,19.1174 31.944,19.6174 32.5,20C 31.2625,20.2321 30.2625,20.7321 29.5,21.5C 27.5116,18.8717 25.5116,16.205 23.5,13.5C 23.81,12.2617 24.31,12.2617 25,13.5C 25.4643,12.9056 25.631,12.2389 25.5,11.5 Z"/></g>
<g><path style="opacity:1" fill="#b17e4b" d="M 34.5,15.5 C 34.5,16.8333 34.5,18.1667 34.5,19.5C 33.1667,21.8333 33.1667,24.1667 34.5,26.5C 33.2921,25.7659 31.9587,25.4326 30.5,25.5C 30.1667,24.1667 29.8333,22.8333 29.5,21.5C 30.2625,20.7321 31.2625,20.2321 32.5,20C 31.944,19.6174 31.6107,19.1174 31.5,18.5C 32.2719,17.3065 33.2719,16.3065 34.5,15.5 Z"/></g>
<g><path style="opacity:1" fill="#a6883e" d="M 2.5,21.5 C 3.83333,21.5 5.16667,21.5 6.5,21.5C 0.247903,32.0812 1.2479,41.7479 9.5,50.5C 8.39105,50.5569 7.39105,50.8902 6.5,51.5C 5.5041,51.5858 4.67076,51.2524 4,50.5C 2.47576,48.1019 0.97576,45.7686 -0.5,43.5C -0.5,38.5 -0.5,33.5 -0.5,28.5C 0.67722,26.3206 1.67722,23.9872 2.5,21.5 Z"/></g>
<g><path style="opacity:0.965" fill="#af8c4f" d="M 61.5,23.5 C 62.0241,25.3057 62.6908,26.9724 63.5,28.5C 63.5,33.1667 63.5,37.8333 63.5,42.5C 61.0972,48.5687 56.7638,52.5687 50.5,54.5C 49.9907,53.6587 50.6573,53.1587 52.5,53C 51.944,52.6174 51.6107,52.1174 51.5,51.5C 55.9053,49.5882 58.7387,46.2548 60,41.5C 60.7913,35.7043 60.2913,30.0376 58.5,24.5C 59.209,23.596 60.209,23.2627 61.5,23.5 Z"/></g>
<g><path style="opacity:0.42" fill="#ac8e47" d="M 37.5,19.5 C 38.7777,19.7822 39.7777,20.4489 40.5,21.5C 39.4336,23.7014 38.767,26.0347 38.5,28.5C 37.5,28.5 36.5,28.5 35.5,28.5C 35.4054,25.3033 36.0721,22.3033 37.5,19.5 Z"/></g>
<g><path style="opacity:1" fill="#bf8b47" d="M 30.5,25.5 C 31.9587,25.4326 33.2921,25.7659 34.5,26.5C 34.3284,27.4916 34.6618,28.1583 35.5,28.5C 35.3444,31.0661 35.6777,33.5661 36.5,36C 35.9839,38.6691 35.3173,41.1691 34.5,43.5C 34.5654,43.0618 34.3988,42.7284 34,42.5C 33.2208,45.0972 32.7208,45.0972 32.5,42.5C 32.9492,36.6415 32.2825,30.9748 30.5,25.5 Z"/></g>
<g><path style="opacity:1" fill="#af914e" d="M 6.5,25.5 C 7.99525,25.4148 8.99525,26.0815 9.5,27.5C 7.42968,31.7214 7.09635,36.0548 8.5,40.5C 8.16667,41.5 7.5,42.1667 6.5,42.5C 3.94416,36.8929 3.94416,31.2262 6.5,25.5 Z"/></g>
<g><path style="opacity:1" fill="#bb9b2e" d="M 32.5,42.5 C 32.7208,45.0972 33.2208,45.0972 34,42.5C 34.3988,42.7284 34.5654,43.0618 34.5,43.5C 32.8913,46.279 33.558,48.279 36.5,49.5C 35.8333,50.1667 35.1667,50.8333 34.5,51.5C 32.7659,50.438 31.0992,50.438 29.5,51.5C 29.472,49.4176 30.1387,47.5843 31.5,46C 31.2716,45.6012 30.9382,45.4346 30.5,45.5C 30.9321,44.2905 31.5987,43.2905 32.5,42.5 Z"/></g>
<g><path style="opacity:1" fill="#b18242" d="M 30.5,45.5 C 30.9382,45.4346 31.2716,45.6012 31.5,46C 30.1387,47.5843 29.472,49.4176 29.5,51.5C 23.3252,55.6858 16.6586,56.5191 9.5,54C 8.05773,53.6232 7.05773,52.7899 6.5,51.5C 7.39105,50.8902 8.39105,50.5569 9.5,50.5C 17.8187,53.9422 24.8187,52.2755 30.5,45.5 Z"/></g>
<g><path style="opacity:1" fill="#b78743" d="M 36.5,49.5 C 41.229,52.2462 46.229,52.9128 51.5,51.5C 51.6107,52.1174 51.944,52.6174 52.5,53C 50.6573,53.1587 49.9907,53.6587 50.5,54.5C 47.6965,55.6378 44.6965,55.8045 41.5,55C 38.5547,54.861 36.2214,53.6943 34.5,51.5C 35.1667,50.8333 35.8333,50.1667 36.5,49.5 Z"/></g>
</svg>
