<?xml version="1.0" encoding="UTF-8"?>
<!DOCTYPE svg PUBLIC "-//W3C//DTD SVG 1.1//EN" "http://www.w3.org/Graphics/SVG/1.1/DTD/svg11.dtd">
<svg xmlns="http://www.w3.org/2000/svg" version="1.1" width="64px" height="64px" style="shape-rendering:geometricPrecision; text-rendering:geometricPrecision; image-rendering:optimizeQuality; fill-rule:evenodd; clip-rule:evenodd" xmlns:xlink="http://www.w3.org/1999/xlink">
<g><path style="opacity:1" fill="#b48648" d="M 49.5,2.5 C 51.403,2.79586 53.0697,3.46253 54.5,4.5C 54.8333,5.83333 55.1667,5.83333 55.5,4.5C 56.4202,3.93256 56.7535,4.59922 56.5,6.5C 56.5,6.83333 56.5,7.16667 56.5,7.5C 56.0679,8.70951 55.4013,9.70951 54.5,10.5C 54.5,9.16667 53.8333,8.5 52.5,8.5C 50.0389,6.31847 47.3722,6.31847 44.5,8.5C 43.8902,7.60895 43.5569,6.60895 43.5,5.5C 45.7105,4.87715 47.7105,3.87715 49.5,2.5 Z"/></g>
<g><path style="opacity:1" fill="#9ea435" d="M 58.5,3.5 C 59.8146,4.89459 59.4812,5.89459 57.5,6.5C 57.1667,6.5 56.8333,6.5 56.5,6.5C 56.7535,4.59922 56.4202,3.93256 55.5,4.5C 55.1667,4.5 54.8333,4.5 54.5,4.5C 53.0697,3.46253 51.403,2.79586 49.5,2.5C 49.811,1.52216 50.4777,0.855491 51.5,0.5C 52.8333,1.83333 54.1667,1.83333 55.5,0.5C 57.2131,0.879292 58.2131,1.87929 58.5,3.5 Z"/></g>
<g><path style="opacity:1" fill="#b8724e" d="M 58.5,3.5 C 59.4959,3.41423 60.3292,3.74756 61,4.5C 61.765,6.06574 61.5983,7.39907 60.5,8.5C 59.5655,9.56764 59.2322,10.901 59.5,12.5C 57.3792,12.3253 55.3792,12.6586 53.5,13.5C 53.5569,12.391 53.8902,11.391 54.5,10.5C 55.4013,9.70951 56.0679,8.70951 56.5,7.5C 57.1667,7.5 57.5,7.16667 57.5,6.5C 59.4812,5.89459 59.8146,4.89459 58.5,3.5 Z"/></g>
<g><path style="opacity:0.863" fill="#6c409d" d="M 52.5,8.5 C 52.5,8.83333 52.5,9.16667 52.5,9.5C 51.391,9.55688 50.391,9.89022 49.5,10.5C 49.8212,8.95186 50.8212,8.28519 52.5,8.5 Z"/></g>
<g><path style="opacity:1" fill="#ae7f50" d="M 14.5,12.5 C 13.609,13.1098 12.609,13.4431 11.5,13.5C 9.23625,12.7814 6.90291,12.448 4.5,12.5C 4.16667,11.8333 3.83333,11.1667 3.5,10.5C 5.28841,9.37753 7.28841,9.21086 9.5,10C 11.6526,10.0995 13.3192,10.9328 14.5,12.5 Z"/></g>
<g><path style="opacity:0.561" fill="#7dd959" d="M 52.5,9.5 C 51.9473,11.5518 50.9473,11.8852 49.5,10.5C 50.391,9.89022 51.391,9.55688 52.5,9.5 Z"/></g>
<g><path style="opacity:1" fill="#b1994a" d="M 3.5,10.5 C 3.83333,11.1667 4.16667,11.8333 4.5,12.5C 4.28099,13.675 4.61432,14.675 5.5,15.5C 7.40864,14.6518 9.40864,14.3184 11.5,14.5C 11.5,15.5 11.5,16.5 11.5,17.5C 8.54661,17.1496 6.21328,18.1496 4.5,20.5C 3.27187,19.6935 2.27187,18.6935 1.5,17.5C 1.33788,15.4727 1.50454,13.4727 2,11.5C 2.38258,10.944 2.88258,10.6107 3.5,10.5 Z"/></g>
<g><path style="opacity:1" fill="#b88744" d="M 60.5,8.5 C 60.5861,10.677 61.2528,12.677 62.5,14.5C 62.3764,15.1067 62.0431,15.44 61.5,15.5C 57.9703,14.9889 54.8037,15.6556 52,17.5C 51.6667,17.1667 51.3333,16.8333 51,16.5C 50.5439,17.7441 51.0439,18.5774 52.5,19C 50.4215,20.2697 50.0882,21.7697 51.5,23.5C 51.5,24.1667 51.5,24.8333 51.5,25.5C 50.8826,25.6107 50.3826,25.944 50,26.5C 49.8019,24.6183 49.3019,22.9516 48.5,21.5C 47.3395,16.8254 49.0061,14.1587 53.5,13.5C 55.3792,12.6586 57.3792,12.3253 59.5,12.5C 59.2322,10.901 59.5655,9.56764 60.5,8.5 Z"/></g>
<g><path style="opacity:0.992" fill="#878955" d="M 61.5,15.5 C 61.2172,16.2891 60.7172,16.9558 60,17.5C 58.5064,16.2528 57.0064,16.2528 55.5,17.5C 53.497,19.1331 52.1637,21.1331 51.5,23.5C 50.0882,21.7697 50.4215,20.2697 52.5,19C 51.0439,18.5774 50.5439,17.7441 51,16.5C 51.3333,16.8333 51.6667,17.1667 52,17.5C 54.8037,15.6556 57.9703,14.9889 61.5,15.5 Z"/></g>
<g><path style="opacity:0.631" fill="#b1894c" d="M 43.5,5.5 C 43.5569,6.60895 43.8902,7.60895 44.5,8.5C 42.651,14.6916 38.9844,19.525 33.5,23C 34.056,23.3826 34.3893,23.8826 34.5,24.5C 34.6332,27.925 33.9665,28.2583 32.5,25.5C 32.1583,24.6618 31.4916,24.3284 30.5,24.5C 29.209,24.7373 28.209,24.404 27.5,23.5C 33.9511,19.8768 38.4511,14.5435 41,7.5C 41.7083,6.61947 42.5416,5.9528 43.5,5.5 Z"/></g>
<g><path style="opacity:1" fill="#ae7b50" d="M 1.5,17.5 C 2.27187,18.6935 3.27187,19.6935 4.5,20.5C 4.5,22.5 4.5,24.5 4.5,26.5C 8.31919,26.4715 9.31919,28.1382 7.5,31.5C 7.45344,33.0377 8.12011,34.0377 9.5,34.5C 9.08247,35.2216 8.4158,35.7216 7.5,36C 8.4158,36.2784 9.08247,36.7784 9.5,37.5C 7.60963,37.7035 6.10963,37.0368 5,35.5C 4.86655,32.4749 3.86655,29.8082 2,27.5C 1.50166,24.1832 1.33499,20.8499 1.5,17.5 Z"/></g>
<g><path style="opacity:0.984" fill="#a2954b" d="M 14.5,12.5 C 15.4584,12.9528 16.2917,13.6195 17,14.5C 18.5036,17.6841 20.0036,20.8507 21.5,24C 23.4884,24.1805 25.4884,24.0138 27.5,23.5C 28.209,24.404 29.209,24.7373 30.5,24.5C 27.184,26.9104 23.5173,27.577 19.5,26.5C 17.3854,22.9999 15.5521,19.3333 14,15.5C 13.3292,14.7476 12.4959,14.4142 11.5,14.5C 11.5,14.1667 11.5,13.8333 11.5,13.5C 12.609,13.4431 13.609,13.1098 14.5,12.5 Z"/></g>
<g><path style="opacity:0.992" fill="#a69144" d="M 42.5,27.5 C 42.4431,28.609 42.1098,29.609 41.5,30.5C 40.0689,30.1193 39.2355,29.1193 39,27.5C 34.4365,31.7759 32.2698,31.1093 32.5,25.5C 33.9665,28.2583 34.6332,27.925 34.5,24.5C 35.1174,24.6107 35.6174,24.944 36,25.5C 37.0414,23.4148 38.5414,21.7481 40.5,20.5C 41.8485,22.6114 41.5152,24.4447 39.5,26C 40.7375,26.2321 41.7375,26.7321 42.5,27.5 Z"/></g>
<g><path style="opacity:0.553" fill="#8cb54b" d="M 48.5,21.5 C 49.3019,22.9516 49.8019,24.6183 50,26.5C 50.3826,25.944 50.8826,25.6107 51.5,25.5C 52.1098,26.391 52.4431,27.391 52.5,28.5C 51.8826,28.3893 51.3826,28.056 51,27.5C 50.7216,28.4158 50.2216,29.0825 49.5,29.5C 49.631,28.7611 49.4643,28.0944 49,27.5C 47.3966,29.6564 45.23,30.9898 42.5,31.5C 41.8933,31.3764 41.56,31.0431 41.5,30.5C 42.1098,29.609 42.4431,28.609 42.5,27.5C 44.5,27.1667 46.5,26.8333 48.5,26.5C 48.5,24.8333 48.5,23.1667 48.5,21.5 Z"/></g>
<g><path style="opacity:1" fill="#9c7d4d" d="M 52.5,28.5 C 52.5429,31.9099 52.0429,35.2432 51,38.5C 50.7996,40.3197 49.9663,41.653 48.5,42.5C 47.5,42.5 46.5,42.5 45.5,42.5C 47.912,38.5239 49.2453,34.1905 49.5,29.5C 50.2216,29.0825 50.7216,28.4158 51,27.5C 51.3826,28.056 51.8826,28.3893 52.5,28.5 Z"/></g>
<g><path style="opacity:1" fill="#b79947" d="M 22.5,44.5 C 20.8333,45.1667 19.1667,45.8333 17.5,46.5C 12.7139,45.3807 10.0473,42.3807 9.5,37.5C 9.08247,36.7784 8.4158,36.2784 7.5,36C 8.4158,35.7216 9.08247,35.2216 9.5,34.5C 11.2259,34.1854 12.8925,34.0187 14.5,34C 14.9574,34.414 15.2907,34.914 15.5,35.5C 13.9852,36.5905 13.1519,37.9239 13,39.5C 15.5525,42.3593 18.7192,44.026 22.5,44.5 Z"/></g>
<g><path style="opacity:1" fill="#a69956" d="M 5.5,49.5 C 4.00475,49.5852 3.00475,48.9185 2.5,47.5C 4.85835,45.7134 7.52502,44.7134 10.5,44.5C 10.719,45.675 10.3857,46.675 9.5,47.5C 7.97448,47.9943 6.64115,48.661 5.5,49.5 Z"/></g>
<g><path style="opacity:1" fill="#a17554" d="M 22.5,44.5 C 23.1667,44.5 23.8333,44.5 24.5,44.5C 24.2178,45.7777 23.5511,46.7777 22.5,47.5C 22.427,49.0269 23.0937,50.0269 24.5,50.5C 24.1667,51.5 23.5,52.1667 22.5,52.5C 21.5655,53.5676 21.2322,54.901 21.5,56.5C 20.8333,56.5 20.5,56.8333 20.5,57.5C 19.8333,56.8333 19.1667,56.1667 18.5,55.5C 18.59,53.3037 18.9233,51.137 19.5,49C 19.3158,47.6244 18.6491,46.7911 17.5,46.5C 19.1667,45.8333 20.8333,45.1667 22.5,44.5 Z"/></g>
<g><path style="opacity:0.965" fill="#ab9140" d="M 45.5,42.5 C 46.5,42.5 47.5,42.5 48.5,42.5C 45.6881,45.4015 42.6881,48.0681 39.5,50.5C 38.8902,49.609 38.5569,48.609 38.5,47.5C 40.2964,45.1 42.6298,43.4333 45.5,42.5 Z"/></g>
<g><path style="opacity:1" fill="#af874b" d="M 24.5,44.5 C 27.0124,47.508 30.179,49.508 34,50.5C 35.6434,49.6854 37.1434,48.6854 38.5,47.5C 38.5569,48.609 38.8902,49.609 39.5,50.5C 38.0582,51.8195 37.3915,53.4862 37.5,55.5C 36.391,55.4431 35.391,55.1098 34.5,54.5C 33.8897,52.1497 33.5563,52.483 33.5,55.5C 32.391,55.4431 31.391,55.1098 30.5,54.5C 30.6309,53.6236 30.2975,52.9569 29.5,52.5C 28.5832,53.1272 27.5832,53.4606 26.5,53.5C 26.0618,53.5654 25.7284,53.3988 25.5,53C 26.1667,52.6667 26.8333,52.3333 27.5,52C 26.5842,51.7216 25.9175,51.2216 25.5,50.5C 25.5,48.5 24.5,47.5 22.5,47.5C 23.5511,46.7777 24.2178,45.7777 24.5,44.5 Z"/></g>
<g><path style="opacity:1" fill="#ab7a47" d="M 5.5,49.5 C 8.51838,49.3354 11.5184,49.502 14.5,50C 15.9771,51.8121 17.3104,53.6455 18.5,55.5C 18.0825,56.2216 17.4158,56.7216 16.5,57C 17.056,57.3826 17.3893,57.8826 17.5,58.5C 17.1667,58.5 16.8333,58.5 16.5,58.5C 15.609,57.8902 14.609,57.5569 13.5,57.5C 14.8408,55.1658 14.1741,53.4991 11.5,52.5C 9.5,51.8333 7.5,51.1667 5.5,50.5C 5.5,50.1667 5.5,49.8333 5.5,49.5 Z"/></g>
<g><path style="opacity:0.871" fill="#a6a44a" d="M 5.5,50.5 C 7.5,51.1667 9.5,51.8333 11.5,52.5C 9.80081,52.3398 8.13414,52.5065 6.5,53C 5.24402,53.4169 4.57735,54.2502 4.5,55.5C 3.95691,55.56 3.62358,55.8933 3.5,56.5C 5.29702,57.6951 6.29702,59.3618 6.5,61.5C 1.92243,60.118 0.422432,57.118 2,52.5C 2.81595,51.1772 3.98261,50.5106 5.5,50.5 Z"/></g>
<g><path style="opacity:1" fill="#b7882a" d="M 24.5,50.5 C 24.8333,50.5 25.1667,50.5 25.5,50.5C 25.9175,51.2216 26.5842,51.7216 27.5,52C 26.8333,52.3333 26.1667,52.6667 25.5,53C 25.7284,53.3988 26.0618,53.5654 26.5,53.5C 25.8411,55.1379 25.1744,56.8045 24.5,58.5C 25.8333,59.1667 27.1667,59.8333 28.5,60.5C 24.8927,61.4892 21.226,61.8226 17.5,61.5C 17.5,60.5 17.5,59.5 17.5,58.5C 17.3893,57.8826 17.056,57.3826 16.5,57C 17.4158,56.7216 18.0825,56.2216 18.5,55.5C 19.1667,56.1667 19.8333,56.8333 20.5,57.5C 21.1103,59.8503 21.4437,59.517 21.5,56.5C 22.4345,55.4324 22.7678,54.099 22.5,52.5C 23.5,52.1667 24.1667,51.5 24.5,50.5 Z"/></g>
<g><path style="opacity:0.967" fill="#b79033" d="M 30.5,54.5 C 31.391,55.1098 32.391,55.4431 33.5,55.5C 34.1667,55.5 34.5,55.1667 34.5,54.5C 35.391,55.1098 36.391,55.4431 37.5,55.5C 38.4345,56.5676 38.7678,57.901 38.5,59.5C 39.9778,59.238 41.3112,59.5713 42.5,60.5C 39.2156,61.657 35.8823,61.8236 32.5,61C 31.6028,58.9129 30.9361,56.7463 30.5,54.5 Z"/></g>
<g><path style="opacity:1" fill="#917e55" d="M 4.5,55.5 C 7.0564,58.4238 10.0564,59.0905 13.5,57.5C 14.609,57.5569 15.609,57.8902 16.5,58.5C 16.0472,59.4584 15.3805,60.2917 14.5,61C 11.854,61.4974 9.1873,61.6641 6.5,61.5C 6.29702,59.3618 5.29702,57.6951 3.5,56.5C 3.62358,55.8933 3.95691,55.56 4.5,55.5 Z"/></g>
</svg>
